<svg xmlns="http://www.w3.org/2000/svg" xmlns:xlink="http://www.w3.org/1999/xlink" viewBox="0 0 522.92 247.4"><defs><style>      .cls-1 {        fill: #fff;      }      .cls-2 {        filter: url(#drop-shadow-1-2);      }      .cls-2, .cls-3, .cls-4, .cls-5, .cls-6, .Graphic_Style {        fill: #ffd500;      }      .cls-3 {        filter: url(#drop-shadow-1-6);      }      .cls-4 {        filter: url(#drop-shadow-1-5);      }      .cls-5 {        filter: url(#drop-shadow-1-4);      }      .cls-6 {        filter: url(#drop-shadow-1-3);      }      .Graphic_Style {        filter: url(#drop-shadow-1);      }    </style><filter id="drop-shadow-1" filterUnits="userSpaceOnUse"><feGaussianBlur stdDeviation=".85"></feGaussianBlur></filter><filter id="drop-shadow-1-2" data-name="drop-shadow-1" filterUnits="userSpaceOnUse"><feGaussianBlur stdDeviation=".85"></feGaussianBlur></filter><filter id="drop-shadow-1-3" data-name="drop-shadow-1" filterUnits="userSpaceOnUse"><feGaussianBlur stdDeviation=".85"></feGaussianBlur></filter><filter id="drop-shadow-1-4" data-name="drop-shadow-1" filterUnits="userSpaceOnUse"><feGaussianBlur stdDeviation=".85"></feGaussianBlur></filter><filter id="drop-shadow-1-5" data-name="drop-shadow-1" filterUnits="userSpaceOnUse"><feGaussianBlur stdDeviation=".85"></feGaussianBlur></filter><filter id="drop-shadow-1-6" data-name="drop-shadow-1" filterUnits="userSpaceOnUse"><feGaussianBlur stdDeviation=".85"></feGaussianBlur></filter></defs><g id="Layer_1" data-name="Layer 1"><path class="cls-1" d="M7.22,143.57S-5.23,78.01,46.1,35.31c0,0-42.22,35.07-38.88,108.26Z"></path><path class="cls-2" d="M219.95,27.42C182.84,3.51,146.02,4.83,146.02,4.83,13.12,5.27,13.56,127.17,13.56,127.17c0,86.7,85.6,112.22,85.6,112.22,0,0-92.64-37.85-75.91-128.94,0,0,14.96-98.58,122.34-102.1,0,0,25.52-3.67,74.37,19.07Z"></path><path class="cls-1" d="M74.63,217.29s-47.6-27.36-44.67-101.88C40.52,32.68,113.29,13.75,150.25,13.75c0,0,62.34-1.32,96.67,50.17,0,0-33.86-40.49-96.67-40.49S42.28,75.58,42.28,115.52c-.4,27.46-6.6,55.78,32.35,101.77Z"></path><g><path class="cls-1" d="M251.48,178.52c-1.43,.64-3.02,1.01-4.69,1.01h-1.48c-21.19,35.39-64.31,51.26-91.63,51.48-37.17,.29-91.33-14.9-109.64-90.07,0,0-3.51,93.88,108.32,99.07,0,0,72.55,0,100.38-61.1-.42-.13-.85-.24-1.26-.38Z"></path><path class="cls-1" d="M257.87,128.92c.87-.08,1.75-.12,2.66-.12s1.88,.06,2.79,.13c-.15-14.88-5.08-63.15-60.04-93.41,4.73,2.71,52.89,31.78,54.59,93.4Z"></path><path class="cls-1" d="M203.29,35.53c-.24-.14-.37-.21-.37-.21,.13,.07,.25,.14,.37,.21Z"></path></g><g><path class="cls-1" d="M291.16,120.87c-1.54-25.22-11.23-42.43-11.23-42.43,4.58,14.14,6.63,27.48,6.86,39.93,1.65,.5,3.13,1.37,4.37,2.5Z"></path><path class="cls-1" d="M274.96,179.53c-.77,0-1.52-.09-2.25-.24-14.79,29.7-35.91,46.58-35.91,46.58,19.73-15.19,32.77-30.98,41.15-46.34h-2.99Z"></path></g><g><path class="cls-6" d="M274.96,117.88h3.37c-2.91-21.84-12.95-46.75-33.59-74.87,0,0,23.44,33.08,26.69,75.43,1.11-.36,2.29-.56,3.53-.56Z"></path><path class="cls-5" d="M260.54,180.03c-.49,0-.97-.03-1.45-.06-11.48,21.65-31.9,42.95-65.87,61.37,0,0,49.25-19.67,73.22-61.9-1.87,.37-3.83,.58-5.91,.58Z"></path></g><g><path class="cls-4" d="M247.36,130.74c.49,.23,.96,.48,1.4,.74,1.17-.61,2.41-1.11,3.7-1.51-.08-9.85-2.47-50.6-35.82-75.51,31.49,33.99,31.34,67.76,30.72,76.28Z"></path><path class="cls-3" d="M234.51,178.9c-1.18,.41-2.45,.63-3.77,.63h-2.38c-27.31,34.77-73.18,38.09-73.18,38.09-17.16,2.54-35.43-3.17-35.43-3.17-3.67-1.06-6.67-1.76-6.31-4.37,.37-2.61,9.17-.49,9.17-.49,37.63,8.25,70.41-14.6,70.41-14.6-82.58,32.29-123-12.06-123-12.06,0,0,21.49,44.56,85.66,39.77,0,0,55.61-5.12,82.51-43.17-1.29-.01-2.53-.23-3.68-.63Z"></path></g></g><g id="Layer_2" data-name="Layer 2"><g><path class="cls-1" d="M68.61,116.99h12.06c3.24-.02,6.23-.81,8.87-2.35,2.64-1.54,4.72-3.71,6.18-6.44,1.45-2.72,2.19-5.83,2.19-9.26v-1.69c-.02-3.39-.78-6.49-2.26-9.23-1.49-2.75-3.59-4.9-6.25-6.41-2.65-1.5-5.67-2.27-8.98-2.27h-11.8c-.28,0-.5,.22-.5,.5v36.64c0,.28,.22,.5,.5,.5Zm19.28-18.04c0,3.43-.65,6.03-1.94,7.74-1.27,1.69-3.05,2.51-5.44,2.51h-2.57v-22.03h2.47c2.46,0,4.27,.82,5.54,2.49,1.28,1.7,1.94,4.29,1.94,7.7v1.59Z"></path><path class="cls-1" d="M123.04,110.32v-12.06c-.05-3.09-1.15-5.56-3.27-7.34-2.1-1.76-4.97-2.66-8.55-2.66s-6.55,.86-8.86,2.56c-2.37,1.73-3.56,4.03-3.56,6.81,0,.28,.22,.5,.5,.5h8.48c.28,0,.5-.22,.5-.5,0-1.72,.78-2.48,2.52-2.48,1.18,0,2.75,.34,2.75,3.27v.94h-2.12c-4.25,0-7.54,.79-9.8,2.35-2.31,1.6-3.49,3.99-3.49,7.1,0,2.49,.96,4.59,2.87,6.23,1.88,1.63,4.19,2.45,6.87,2.45s4.69-.81,6.29-2.4c.19,.68,.4,1.22,.63,1.64,.09,.16,.26,.26,.44,.26h8.48c.28,0,.5-.22,.5-.5v-.43c0-.08-.02-.17-.06-.24-.69-1.25-1.06-3.1-1.09-5.49Zm-13.13,.13c-.68,0-1.22-.19-1.65-.59-.42-.38-.62-.88-.62-1.51,0-2.37,1.25-3.48,3.93-3.48h1.97v3.72c-.27,.45-.69,.87-1.27,1.25-.61,.4-1.4,.6-2.36,.6Z"></path><path class="cls-1" d="M141.77,88.26c-3.01,0-5.49,1-7.38,2.97l-.17-2.01c-.02-.26-.24-.46-.5-.46h-7.95c-.28,0-.5,.22-.5,.5v27.23c0,.28,.22,.5,.5,.5h8.48c.28,0,.5-.22,.5-.5v-19.08c.71-1.08,1.76-1.61,3.2-1.61,1.3,0,2.19,.27,2.64,.79,.47,.55,.71,1.46,.71,2.71v17.19c0,.28,.22,.5,.5,.5h8.51c.28,0,.5-.22,.5-.5v-17.55c-.05-3.51-.82-6.19-2.29-7.96-1.5-1.81-3.76-2.72-6.74-2.72Z"></path><path class="cls-1" d="M157.6,116.19c1.89,.87,4.06,1.3,6.45,1.3,3.6,0,6.58-.82,8.86-2.43,2.34-1.65,3.52-3.83,3.52-6.47,0-3.86-2.18-6.57-6.48-8.05-1.24-.43-2.7-.8-4.34-1.1-1.55-.29-2.68-.65-3.36-1.09-.6-.38-.88-.83-.88-1.42s.24-1.06,.72-1.46c.52-.42,1.15-.63,1.92-.63,2.01,0,2.95,.88,2.95,2.77,0,.28,.22,.5,.5,.5h8.51c.28,0,.5-.22,.5-.5,0-2.8-1.17-5.1-3.47-6.82-2.26-1.69-5.27-2.54-8.96-2.54-3.44,0-6.27,.85-8.41,2.53-2.18,1.71-3.29,3.92-3.29,6.57,0,1.5,.39,2.86,1.17,4.03,.76,1.15,1.88,2.14,3.32,2.94,1.41,.78,3.22,1.42,5.37,1.9,2.05,.46,3.46,.9,4.16,1.3,.79,.46,.88,.96,.88,1.3,0,.6-.22,1.08-.68,1.45-.48,.39-1.25,.59-2.29,.59-1.15,0-2.09-.26-2.8-.77-.68-.49-1.02-1.26-1.05-2.36,0-.27-.23-.49-.5-.49h-7.93c-.28,0-.5,.22-.5,.5,0,1.69,.55,3.32,1.63,4.84,1.07,1.51,2.58,2.72,4.48,3.59Z"></path><path class="cls-1" d="M178.47,116.99h8.48c.28,0,.5-.22,.5-.5v-7.54l1.79-1.79,5.61,9.58c.09,.15,.25,.25,.43,.25h9.71c.18,0,.35-.1,.44-.26,.09-.16,.08-.35-.02-.51l-9.97-15.72,9.3-10.92c.13-.15,.16-.36,.07-.53-.08-.18-.26-.29-.45-.29h-10.17c-.15,0-.29,.07-.39,.19l-6.36,7.91v-19.05c0-.28-.22-.5-.5-.5h-8.48c-.28,0-.5,.22-.5,.5v38.68c0,.28,.22,.5,.5,.5Z"></path><path class="cls-1" d="M202.48,102.83v.7c0,4.12,1.36,7.51,4.03,10.09,2.67,2.57,6.2,3.88,10.49,3.88,2.29,0,4.46-.45,6.46-1.34,2.01-.9,3.59-2.12,4.69-3.65,.13-.19,.12-.44-.02-.62l-3.88-4.58c-.1-.11-.2-.19-.39-.18-.15,0-.29,.07-.38,.19-1.42,1.77-3.35,2.63-5.9,2.63-1.5,0-2.73-.4-3.65-1.19-.79-.68-1.36-1.59-1.68-2.72h16.23c.28,0,.5-.22,.5-.5v-3.3c0-4.36-1.16-7.81-3.46-10.27-2.3-2.47-5.47-3.72-9.42-3.72-2.79,0-5.25,.61-7.3,1.82-2.06,1.21-3.64,2.95-4.71,5.16-1.06,2.19-1.6,4.74-1.6,7.59Zm17.19-3.09h-7.47c.51-2.64,1.77-3.93,3.84-3.93,1.21,0,2.11,.32,2.74,.97,.63,.65,.92,1.57,.89,2.81v.15Z"></path><path class="cls-1" d="M79.02,139c.82-.62,1.98-.94,3.43-.94s2.56,.37,3.38,1.11c.81,.73,1.21,1.74,1.21,3.1,0,.28,.22,.5,.5,.5h8.81c.28,0,.5-.22,.5-.5,0-2.32-.61-4.42-1.82-6.23-1.21-1.81-2.92-3.22-5.08-4.19-2.15-.96-4.6-1.45-7.29-1.45s-5.27,.45-7.48,1.33c-2.24,.89-4,2.17-5.23,3.79-1.25,1.63-1.88,3.54-1.88,5.68,0,4.26,2.49,7.65,7.4,10.06,1.47,.73,3.39,1.49,5.7,2.26,2.23,.75,3.8,1.48,4.67,2.16,.79,.63,1.18,1.49,1.18,2.63,0,.98-.35,1.72-1.07,2.25-.76,.56-1.82,.84-3.16,.84-2.14,0-3.69-.43-4.61-1.26-.9-.83-1.36-2.17-1.36-3.97,0-.28-.22-.5-.5-.5h-8.86c-.28,0-.5,.22-.5,.5,0,2.5,.64,4.75,1.91,6.68,1.26,1.93,3.17,3.46,5.65,4.56,2.46,1.09,5.24,1.64,8.27,1.64,4.3,0,7.75-.96,10.24-2.84,2.54-1.92,3.82-4.59,3.82-7.95,0-4.18-2.08-7.5-6.19-9.87-1.65-.95-3.78-1.85-6.34-2.67-2.47-.79-4.21-1.56-5.16-2.29-.88-.67-1.31-1.38-1.31-2.16,0-.92,.38-1.66,1.17-2.26Z"></path><path class="cls-1" d="M111,139.8c-2.8,0-5.25,.61-7.3,1.82-2.06,1.21-3.64,2.95-4.71,5.16-1.06,2.19-1.6,4.74-1.6,7.59v.71c0,4.11,1.36,7.51,4.03,10.09,2.67,2.57,6.2,3.88,10.49,3.88,2.29,0,4.47-.45,6.46-1.34,2.01-.9,3.59-2.12,4.69-3.65,.13-.19,.12-.44-.02-.62l-3.88-4.58c-.1-.11-.23-.18-.39-.18-.15,0-.29,.07-.38,.19-1.42,1.77-3.35,2.63-5.9,2.63-1.5,0-2.73-.4-3.65-1.19-.8-.68-1.36-1.59-1.68-2.72h16.23c.28,0,.5-.22,.5-.5v-3.3c0-4.36-1.16-7.81-3.46-10.27-2.3-2.47-5.47-3.72-9.43-3.72Zm-.05,7.54c1.21,0,2.11,.32,2.74,.97,.62,.64,.92,1.58,.89,2.81v.15h-7.47c.51-2.64,1.77-3.93,3.84-3.93Z"></path><path class="cls-1" d="M141.47,139.8c-3.01,0-5.49,1-7.38,2.97l-.17-2.01c-.02-.26-.24-.46-.5-.46h-7.95c-.28,0-.5,.22-.5,.5v27.23c0,.28,.22,.5,.5,.5h8.48c.28,0,.5-.22,.5-.5v-19.08c.71-1.08,1.76-1.61,3.2-1.61,1.3,0,2.19,.27,2.64,.79,.47,.55,.71,1.46,.71,2.71v17.19c0,.28,.22,.5,.5,.5h8.51c.28,0,.5-.22,.5-.5v-17.55c-.05-3.51-.82-6.19-2.29-7.96-1.49-1.81-3.76-2.72-6.74-2.72Z"></path><path class="cls-1" d="M165.32,139.8c-2.8,0-5.25,.61-7.3,1.82-2.06,1.21-3.64,2.95-4.71,5.16-1.06,2.19-1.6,4.74-1.6,7.59v.71c0,4.12,1.36,7.51,4.03,10.09,2.67,2.57,6.2,3.88,10.49,3.88,2.29,0,4.46-.45,6.46-1.34,2.01-.9,3.59-2.12,4.69-3.65,.13-.19,.12-.44-.02-.62l-3.88-4.58c-.1-.11-.2-.18-.39-.18-.15,0-.29,.07-.38,.19-1.42,1.77-3.35,2.63-5.9,2.63-1.5,0-2.73-.4-3.65-1.19-.79-.68-1.36-1.59-1.68-2.72h16.23c.28,0,.5-.22,.5-.5v-3.3c0-4.36-1.16-7.81-3.46-10.27-2.3-2.47-5.47-3.72-9.42-3.72Zm-.05,7.54c1.21,0,2.11,.32,2.74,.97s.92,1.57,.89,2.81v.15h-7.47c.51-2.64,1.77-3.93,3.84-3.93Z"></path><path class="cls-1" d="M194.33,161.25c-.54,.09-1.22,.14-2.03,.14-1.23,0-1.67-.28-1.82-.44-.19-.21-.42-.69-.42-1.8v-11.96h3.98c.28,0,.5-.22,.5-.5v-5.89c0-.28-.22-.5-.5-.5h-3.98v-6.27c0-.28-.22-.5-.5-.5h-8.48c-.28,0-.5,.22-.5,.5v6.27h-2.97c-.28,0-.5,.22-.5,.5v5.89c0,.28,.22,.5,.5,.5h2.97v13.01c0,2.93,.75,5.16,2.24,6.62,1.48,1.46,3.78,2.21,6.82,2.21,1.7,0,3.36-.25,4.93-.75,.21-.07,.35-.26,.35-.48v-6.06c0-.15-.07-.29-.18-.38-.11-.1-.26-.13-.41-.11Z"></path><path class="cls-1" d="M207.79,139.8c-2.8,0-5.25,.61-7.3,1.82-2.06,1.21-3.64,2.95-4.71,5.16-1.06,2.19-1.6,4.74-1.6,7.59v.71c0,4.12,1.36,7.51,4.03,10.09,2.67,2.57,6.2,3.88,10.49,3.88,2.29,0,4.46-.45,6.46-1.34,2.01-.9,3.59-2.12,4.69-3.65,.13-.19,.12-.44-.02-.62l-3.88-4.58c-.1-.11-.24-.18-.38-.18h0c-.15,0-.29,.07-.38,.19-1.42,1.77-3.35,2.63-5.9,2.63-1.5,0-2.73-.4-3.65-1.19-.79-.68-1.36-1.59-1.68-2.72h16.23c.28,0,.5-.22,.5-.5v-3.3c0-4.36-1.16-7.81-3.46-10.27-2.3-2.47-5.47-3.72-9.42-3.72Zm-.05,7.54c1.21,0,2.11,.32,2.74,.97s.92,1.57,.89,2.81v.15h-7.47c.51-2.64,1.77-3.93,3.84-3.93Z"></path><path class="cls-1" d="M238.26,139.8c-3.01,0-5.49,1-7.38,2.97l-.17-2.01c-.02-.26-.24-.46-.5-.46h-7.95c-.28,0-.5,.22-.5,.5v27.23c0,.28,.22,.5,.5,.5h8.48c.28,0,.5-.22,.5-.5v-19.08c.71-1.08,1.76-1.61,3.2-1.61,1.3,0,2.19,.27,2.64,.79,.47,.55,.71,1.46,.71,2.71v17.19c0,.28,.22,.5,.5,.5h8.51c.28,0,.5-.22,.5-.5v-17.55c-.05-3.51-.82-6.18-2.29-7.96-1.49-1.81-3.76-2.72-6.74-2.72Z"></path><path class="cls-1" d="M258.59,147.01c.52-.42,1.15-.63,1.92-.63,2.01,0,2.95,.88,2.95,2.77,0,.28,.22,.5,.5,.5h8.51c.28,0,.5-.22,.5-.5,0-2.81-1.17-5.1-3.47-6.82-2.26-1.69-5.27-2.54-8.96-2.54-3.44,0-6.27,.85-8.41,2.54-2.18,1.71-3.29,3.92-3.29,6.57,0,1.5,.39,2.86,1.17,4.03,.76,1.15,1.88,2.14,3.32,2.94,1.41,.78,3.22,1.42,5.37,1.9,2.06,.46,3.46,.9,4.16,1.3,.79,.46,.88,.96,.88,1.3,0,.6-.22,1.08-.68,1.45-.48,.39-1.25,.59-2.29,.59-1.15,0-2.09-.26-2.8-.77-.68-.49-1.02-1.26-1.05-2.36,0-.27-.23-.49-.5-.49h-7.93c-.28,0-.5,.22-.5,.5,0,1.69,.55,3.32,1.63,4.84,1.07,1.51,2.58,2.72,4.48,3.59,1.89,.87,4.06,1.3,6.45,1.3,3.6,0,6.58-.82,8.86-2.43,2.33-1.65,3.52-3.83,3.52-6.47,0-3.86-2.18-6.57-6.48-8.05-1.24-.43-2.7-.8-4.34-1.1-1.55-.29-2.68-.66-3.36-1.09-.6-.38-.88-.83-.88-1.42s.24-1.06,.72-1.46Z"></path><path class="cls-1" d="M289.55,139.8c-2.2,0-4.08,.67-5.62,1.99v-12.41c0-.28-.22-.5-.5-.5h-8.48c-.28,0-.5,.22-.5,.5v38.65c0,.28,.22,.5,.5,.5h7.6c.25,0,.46-.19,.5-.44l.21-1.68c1.68,1.74,3.81,2.62,6.34,2.62,3.5,0,6.26-1.28,8.2-3.79,1.91-2.48,2.87-6.04,2.87-10.6v-.43c0-4.5-.97-8.06-2.87-10.57-1.94-2.55-4.71-3.85-8.25-3.85Zm1.62,14.3c0,2.3-.13,3.93-.39,4.84-.48,1.74-1.54,2.55-3.32,2.55s-2.88-.58-3.53-1.78v-10.56c.66-1.22,1.8-1.81,3.48-1.81,1.27,0,2.18,.47,2.79,1.44,.64,1.03,.97,2.82,.97,5.33Z"></path><path class="cls-1" d="M314.61,139.8c-2.79,0-5.25,.61-7.3,1.82-2.06,1.21-3.64,2.95-4.71,5.16-1.06,2.19-1.6,4.74-1.6,7.59v.71c0,4.11,1.36,7.51,4.03,10.09,2.67,2.57,6.2,3.88,10.49,3.88,2.29,0,4.47-.45,6.46-1.34,2.01-.9,3.59-2.12,4.69-3.65,.13-.19,.12-.44-.02-.62l-3.88-4.58c-.1-.11-.26-.18-.39-.18-.15,0-.29,.07-.38,.19-1.42,1.77-3.35,2.63-5.9,2.63-1.5,0-2.73-.4-3.65-1.19-.8-.68-1.36-1.59-1.68-2.72h16.23c.28,0,.5-.22,.5-.5v-3.3c0-4.36-1.16-7.81-3.46-10.27-2.3-2.47-5.47-3.72-9.43-3.72Zm-.05,7.54c1.21,0,2.11,.32,2.74,.97,.63,.65,.92,1.57,.89,2.81v.15h-7.47c.51-2.64,1.77-3.93,3.84-3.93Z"></path><path class="cls-1" d="M344.49,139.8c-2.52,0-4.69,.88-6.45,2.62v-13.04c0-.28-.22-.5-.5-.5h-8.48c-.28,0-.5,.22-.5,.5v38.65c0,.28,.22,.5,.5,.5h8.48c.28,0,.5-.22,.5-.5v-19.37c.64-.89,1.69-1.32,3.2-1.32,1.25,0,2.13,.29,2.62,.85,.5,.58,.76,1.54,.76,2.86v16.99c0,.28,.22,.5,.5,.5h8.51c.28,0,.5-.22,.5-.5v-17.19c-.03-3.58-.86-6.33-2.46-8.2-1.62-1.88-4.03-2.84-7.17-2.84Z"></path><path class="cls-1" d="M380.06,161.86v-12.06c-.05-3.09-1.15-5.56-3.27-7.34-2.1-1.76-4.97-2.66-8.55-2.66s-6.55,.86-8.86,2.56c-2.36,1.73-3.56,4.03-3.56,6.81,0,.28,.22,.5,.5,.5h8.48c.28,0,.5-.22,.5-.5,0-1.72,.78-2.48,2.52-2.48,1.18,0,2.75,.34,2.75,3.27v.94h-2.12c-4.25,0-7.54,.79-9.8,2.35-2.31,1.6-3.49,3.99-3.49,7.11,0,2.49,.96,4.59,2.87,6.23,1.88,1.62,4.19,2.45,6.87,2.45s4.69-.81,6.29-2.4c.19,.67,.4,1.22,.62,1.64,.09,.16,.26,.26,.44,.26h8.48c.28,0,.5-.22,.5-.5v-.43c0-.08-.02-.17-.06-.24-.69-1.25-1.06-3.1-1.09-5.5Zm-13.13,.13c-.68,0-1.22-.19-1.65-.59-.42-.38-.62-.87-.62-1.51,0-2.37,1.25-3.48,3.93-3.48h1.97v3.72c-.27,.45-.69,.87-1.27,1.25-.61,.4-1.41,.6-2.36,.6Z"></path><path class="cls-1" d="M398.8,139.8c-3.01,0-5.49,1-7.38,2.97l-.17-2.01c-.02-.26-.24-.46-.5-.46h-7.95c-.28,0-.5,.22-.5,.5v27.23c0,.28,.22,.5,.5,.5h8.48c.28,0,.5-.22,.5-.5v-19.08c.71-1.08,1.76-1.61,3.2-1.61,1.3,0,2.19,.27,2.64,.79,.47,.55,.71,1.46,.71,2.71v17.19c0,.28,.22,.5,.5,.5h8.51c.28,0,.5-.22,.5-.5v-17.55c-.05-3.51-.82-6.18-2.29-7.96-1.49-1.81-3.76-2.72-6.74-2.72Z"></path><path class="cls-1" d="M434.84,128.88h-8.51c-.28,0-.5,.22-.5,.5v12.57c-1.59-1.43-3.48-2.15-5.64-2.15-3.49,0-6.25,1.32-8.2,3.92-1.92,2.56-2.89,6.09-2.89,10.49,0,4.67,.99,8.34,2.95,10.9,1.99,2.6,4.71,3.92,8.1,3.92,2.47,0,4.59-.93,6.31-2.75l.27,1.82c.04,.25,.25,.43,.5,.43h7.62c.28,0,.5-.22,.5-.5v-38.65c0-.28-.22-.5-.5-.5Zm-9.01,20.5v10.13c-.72,1.34-1.88,1.99-3.53,1.99-.92,0-3.73,0-3.73-6.74l.02-1.54c.2-3.95,1.43-5.87,3.75-5.87,1.65,0,2.78,.67,3.48,2.03Z"></path><rect class="cls-1" x="437.97" y="128.88" width="9.51" height="39.65" rx=".5" ry=".5"></rect><path class="cls-1" d="M462.66,139.8c-2.79,0-5.25,.61-7.3,1.82-2.06,1.21-3.64,2.95-4.71,5.16-1.06,2.19-1.6,4.74-1.6,7.59v.71c0,4.11,1.36,7.51,4.03,10.09,2.67,2.57,6.2,3.88,10.49,3.88,2.29,0,4.47-.45,6.46-1.34,2.01-.9,3.59-2.12,4.69-3.65,.13-.19,.12-.44-.02-.62l-3.88-4.58c-.1-.11-.25-.18-.39-.18-.15,0-.29,.07-.38,.19-1.42,1.77-3.35,2.63-5.9,2.63-1.5,0-2.73-.4-3.65-1.19-.8-.68-1.36-1.59-1.68-2.72h16.23c.28,0,.5-.22,.5-.5v-3.3c0-4.36-1.16-7.81-3.46-10.27-2.3-2.47-5.47-3.72-9.43-3.72Zm-.05,7.54c1.21,0,2.11,.32,2.74,.97,.63,.65,.92,1.57,.89,2.81v.15h-7.47c.51-2.64,1.77-3.93,3.84-3.93Z"></path><path class="cls-1" d="M494.13,148.49l.15-7.88c0-.22-.14-.42-.36-.49-.71-.21-1.56-.32-2.51-.32-2.28,0-4.15,.99-5.58,2.95l-.16-1.99c-.02-.26-.24-.46-.5-.46h-7.95c-.28,0-.5,.22-.5,.5v27.23c0,.28,.22,.5,.5,.5h8.48c.28,0,.5-.22,.5-.5v-17.13c.7-1.43,2.21-2.13,4.6-2.13l2.79,.2c.15,.01,.27-.04,.37-.13,.1-.09,.16-.22,.16-.36Z"></path><path class="cls-1" d="M516.72,143.52c-2.3-2.47-5.47-3.72-9.43-3.72-2.79,0-5.25,.61-7.3,1.82-2.06,1.21-3.64,2.95-4.71,5.16-1.06,2.19-1.6,4.74-1.6,7.59v.71c0,4.11,1.36,7.51,4.03,10.09,2.67,2.57,6.2,3.88,10.49,3.88,2.29,0,4.47-.45,6.46-1.34,2.01-.9,3.59-2.12,4.69-3.65,.13-.19,.12-.44-.02-.62l-3.88-4.58c-.1-.11-.21-.18-.39-.18-.15,0-.29,.07-.38,.19-1.42,1.77-3.35,2.63-5.9,2.63-1.5,0-2.73-.4-3.65-1.19-.8-.68-1.36-1.59-1.68-2.72h16.23c.28,0,.5-.22,.5-.5v-3.3c0-4.36-1.16-7.81-3.46-10.27Zm-9.48,3.82c1.21,0,2.11,.32,2.74,.97,.63,.65,.92,1.57,.89,2.81v.15h-7.47c.51-2.64,1.77-3.93,3.84-3.93Z"></path></g></g></svg>